<svg aria-hidden="true" style="position: absolute; width: 0; height: 0; overflow: hidden;" version="1.1" xmlns="http://www.w3.org/2000/svg" xmlns:xlink="http://www.w3.org/1999/xlink">
<defs>
<symbol id="icon-facebook" viewBox="0 0 32 32">
<path d="M29.333 16.405c0-7.409-5.969-13.415-13.333-13.415s-13.333 6.006-13.333 13.415c0 6.696 4.876 12.245 11.25 13.252v-9.374h-3.385v-3.878h3.385v-2.955c0-3.362 1.991-5.219 5.036-5.219 1.459 0 2.985 0.262 2.985 0.262v3.301h-1.681c-1.656 0-2.173 1.034-2.173 2.095v2.516h3.698l-0.591 3.878h-3.107v9.374c6.374-1.006 11.25-6.556 11.25-13.252z"></path>
</symbol>
<symbol id="icon-instagram" viewBox="0 0 32 32">
<path d="M21.333 4.324h-10.667c-3.682 0-6.667 2.985-6.667 6.667v10.667c0 3.682 2.985 6.667 6.667 6.667h10.667c3.682 0 6.667-2.985 6.667-6.667v-10.667c0-3.682-2.985-6.667-6.667-6.667zM25.667 21.657c-0.007 2.39-1.943 4.326-4.333 4.333h-10.667c-2.39-0.007-4.326-1.943-4.333-4.333v-10.667c0.007-2.39 1.943-4.326 4.333-4.333h10.667c2.39 0.007 4.326 1.943 4.333 4.333v10.667zM22.333 11.324c0.736 0 1.333-0.597 1.333-1.333s-0.597-1.333-1.333-1.333c-0.736 0-1.333 0.597-1.333 1.333s0.597 1.333 1.333 1.333zM16 10.324c-3.314 0-6 2.686-6 6s2.686 6 6 6c3.314 0 6-2.686 6-6 0.004-1.592-0.627-3.121-1.753-4.247s-2.654-1.757-4.247-1.753zM12.333 16.324c0 2.025 1.642 3.667 3.667 3.667s3.667-1.642 3.667-3.667c0-2.025-1.642-3.667-3.667-3.667s-3.667 1.642-3.667 3.667z"></path>
</symbol>
<symbol id="icon-x" viewBox="0 0 32 32">
<path d="M22.901 5.657h3.68l-8.040 9.037 9.459 12.297h-7.406l-5.801-7.458-6.637 7.458h-3.682l8.6-9.666-9.074-11.668h7.594l5.243 6.817 6.064-6.817zM21.61 24.824h2.039l-13.163-17.115h-2.188l13.312 17.115z"></path>
</symbol>
<symbol id="icon-youtube" viewBox="0 0 32 32">
<path d="M28.791 9.604c-0.152-0.563-0.449-1.077-0.861-1.49s-0.925-0.711-1.489-0.864c-2.088-0.573-10.441-0.583-10.441-0.583s-8.352-0.009-10.441 0.539c-0.563 0.16-1.075 0.462-1.487 0.878s-0.711 0.929-0.867 1.493c-0.551 2.088-0.556 6.419-0.556 6.419s-0.005 4.352 0.541 6.419c0.307 1.143 1.207 2.045 2.351 2.353 2.109 0.573 10.44 0.583 10.44 0.583s8.353 0.009 10.441-0.537c0.563-0.153 1.077-0.45 1.49-0.862s0.712-0.925 0.866-1.488c0.552-2.087 0.556-6.416 0.556-6.416s0.027-4.353-0.543-6.441zM13.328 20.007l0.007-8 6.943 4.007-6.949 3.993z"></path>
</symbol>
<symbol id="icon-company-logo" viewBox="0 0 75 32">
<path d="M68.043 23.485c-0.69 0-1.311-0.131-1.864-0.393-0.538-0.276-0.966-0.649-1.284-1.118s-0.476-0.994-0.476-1.574c0-0.745 0.186-1.332 0.559-1.76 0.386-0.428 1.015-0.732 1.884-0.911 0.883-0.179 2.084-0.269 3.602-0.269h0.932v1.097h-0.911c-0.842 0-1.545 0.028-2.111 0.083s-1.015 0.152-1.346 0.29c-0.331 0.138-0.566 0.317-0.704 0.538s-0.207 0.497-0.207 0.828c0 0.566 0.193 1.028 0.58 1.387 0.401 0.359 0.939 0.538 1.615 0.538 0.553 0 1.035-0.131 1.449-0.393 0.428-0.262 0.759-0.621 0.994-1.077 0.249-0.455 0.373-0.98 0.373-1.574v-2.36c0-0.856-0.173-1.47-0.517-1.843-0.345-0.386-0.911-0.58-1.698-0.58-0.607 0-1.194 0.090-1.76 0.269-0.566 0.166-1.145 0.442-1.739 0.828l-0.58-1.222c0.359-0.248 0.766-0.462 1.222-0.642 0.455-0.193 0.932-0.338 1.428-0.435s0.973-0.145 1.429-0.145c0.869 0 1.587 0.145 2.153 0.435 0.566 0.276 0.987 0.704 1.263 1.284 0.276 0.566 0.415 1.297 0.415 2.195v6.335h-1.574v-2.34h0.187c-0.111 0.524-0.325 0.973-0.642 1.346-0.303 0.373-0.683 0.663-1.139 0.87s-0.966 0.311-1.532 0.311z"></path>
<path d="M59.844 23.485c-1.008 0-1.877-0.221-2.609-0.663s-1.297-1.056-1.698-1.843c-0.386-0.801-0.58-1.725-0.58-2.774 0-1.063 0.193-1.981 0.58-2.754 0.4-0.773 0.966-1.366 1.698-1.781s1.601-0.621 2.609-0.621c0.621 0 1.235 0.11 1.843 0.331s1.111 0.531 1.511 0.932l-0.58 1.222c-0.4-0.386-0.842-0.669-1.325-0.849-0.469-0.179-0.918-0.269-1.346-0.269-1.049 0-1.856 0.331-2.422 0.994-0.566 0.649-0.849 1.587-0.849 2.816 0 1.201 0.283 2.153 0.849 2.857 0.566 0.69 1.373 1.035 2.422 1.035 0.428 0 0.876-0.090 1.346-0.269 0.483-0.179 0.925-0.469 1.325-0.87l0.58 1.222c-0.4 0.4-0.911 0.718-1.532 0.952-0.607 0.221-1.215 0.331-1.822 0.331z"></path>
<path d="M50.766 10.731v-1.884h2.070v1.884h-2.070zM50.973 23.298v-10.062h1.677v10.062h-1.677z"></path>
<path d="M39.413 23.298v-14.596h1.677v6.77h-0.269c0.29-0.801 0.759-1.401 1.408-1.801 0.663-0.414 1.422-0.621 2.277-0.621 0.801 0 1.463 0.145 1.988 0.435 0.538 0.29 0.939 0.732 1.201 1.325 0.262 0.58 0.393 1.318 0.393 2.215v6.273h-1.677v-6.17c0-0.621-0.083-1.132-0.248-1.532-0.152-0.4-0.4-0.697-0.745-0.89-0.331-0.193-0.766-0.29-1.304-0.29-0.607 0-1.139 0.131-1.594 0.393s-0.807 0.628-1.056 1.097c-0.248 0.469-0.373 1.021-0.373 1.656v5.735h-1.677z"></path>
<path d="M36.419 23.485c-1.187 0-2.077-0.317-2.671-0.952s-0.89-1.539-0.89-2.712v-5.28h-1.967v-1.304h1.967v-3.085h1.677v3.085h3.188v1.304h-3.188v5.114c0 0.787 0.166 1.387 0.497 1.801 0.331 0.4 0.87 0.6 1.615 0.6 0.221 0 0.442-0.028 0.663-0.083s0.421-0.11 0.6-0.166l0.29 1.284c-0.179 0.097-0.442 0.186-0.787 0.269s-0.676 0.124-0.994 0.124z"></path>
<path d="M25.368 23.485c-0.98 0-1.829-0.214-2.547-0.642s-1.277-1.028-1.677-1.801c-0.386-0.787-0.58-1.712-0.58-2.774s0.193-1.981 0.58-2.754c0.4-0.787 0.959-1.394 1.677-1.822s1.567-0.642 2.547-0.642c0.98 0 1.829 0.214 2.547 0.642s1.27 1.035 1.656 1.822c0.4 0.773 0.6 1.691 0.6 2.754s-0.2 1.988-0.6 2.774c-0.386 0.773-0.939 1.373-1.656 1.801s-1.567 0.642-2.547 0.642zM25.368 22.139c0.952 0 1.705-0.331 2.257-0.994 0.566-0.676 0.849-1.643 0.849-2.899 0-1.242-0.283-2.195-0.849-2.857-0.552-0.663-1.304-0.994-2.257-0.994-0.939 0-1.691 0.331-2.257 0.994s-0.849 1.615-0.849 2.857c0 1.256 0.283 2.222 0.849 2.899 0.566 0.663 1.318 0.994 2.257 0.994z"></path>
<path d="M18.452 23.485c-1.021 0-1.794-0.304-2.319-0.911-0.511-0.607-0.766-1.477-0.766-2.609v-11.263h1.677v11.139c0 0.483 0.062 0.89 0.186 1.222 0.138 0.331 0.338 0.58 0.6 0.745s0.587 0.248 0.973 0.248c0.166 0 0.324-0.007 0.476-0.021 0.166-0.028 0.317-0.062 0.456-0.104l-0.041 1.408c-0.221 0.041-0.435 0.076-0.642 0.104-0.193 0.028-0.393 0.041-0.6 0.041z"></path>
<path d="M8.186 23.414c-1.435 0-2.664-0.304-3.685-0.911s-1.808-1.47-2.36-2.588c-0.538-1.118-0.807-2.45-0.807-3.996s0.269-2.871 0.807-3.975c0.552-1.118 1.339-1.981 2.36-2.588s2.25-0.911 3.685-0.911c1.008 0 1.939 0.159 2.795 0.476s1.574 0.78 2.153 1.387l-0.663 1.387c-0.635-0.594-1.297-1.021-1.988-1.284-0.676-0.276-1.429-0.414-2.257-0.414-1.643 0-2.899 0.518-3.768 1.553s-1.304 2.491-1.304 4.369c0 1.877 0.435 3.34 1.304 4.389 0.87 1.035 2.126 1.553 3.768 1.553 0.828 0 1.58-0.131 2.257-0.393 0.69-0.276 1.353-0.711 1.988-1.304l0.663 1.387c-0.58 0.594-1.297 1.056-2.153 1.387-0.856 0.317-1.787 0.476-2.795 0.476z"></path>
</symbol>
<symbol id="icon-basket" viewBox="0 0 30 32">
<path d="M9.083 30.638c-0.757 0-1.402-0.269-1.935-0.808s-0.8-1.186-0.8-1.943 0.269-1.402 0.808-1.935c0.539-0.533 1.186-0.8 1.943-0.8s1.402 0.269 1.935 0.808c0.533 0.539 0.8 1.187 0.8 1.943s-0.269 1.401-0.808 1.935-1.186 0.8-1.943 0.8zM24.321 30.638c-0.757 0-1.401-0.269-1.935-0.808s-0.8-1.186-0.8-1.943 0.269-1.402 0.808-1.935c0.539-0.533 1.186-0.8 1.943-0.8s1.402 0.269 1.935 0.808c0.533 0.539 0.8 1.187 0.8 1.943s-0.269 1.401-0.808 1.935-1.186 0.8-1.943 0.8zM7.283 5.496l4.036 8.376h10.944l4.58-8.376h-19.56zM6.030 3.010h22.177c0.664 0 1.168 0.3 1.515 0.9s0.349 1.203 0.007 1.81l-4.988 8.993c-0.291 0.494-0.666 0.894-1.124 1.198s-0.965 0.457-1.521 0.457h-11.478l-2.070 3.862h17.38c0.352 0 0.647 0.12 0.886 0.359s0.357 0.535 0.357 0.889c0 0.354-0.119 0.648-0.357 0.884s-0.534 0.354-0.886 0.354h-17.219c-1.115 0-1.917-0.374-2.405-1.121s-0.479-1.581 0.028-2.5l2.411-4.441-5.736-12.166h-1.765c-0.352 0-0.647-0.12-0.886-0.359s-0.357-0.535-0.357-0.889c0-0.354 0.119-0.648 0.357-0.884s0.533-0.354 0.886-0.354h2.554c0.259 0 0.494 0.064 0.705 0.191s0.364 0.307 0.461 0.539l1.068 2.28z"></path>
</symbol>
<symbol id="icon-burger-menu" viewBox="0 0 47 32">
<path d="M2.097 30.628c-0.592 0-1.089-0.203-1.492-0.608s-0.604-0.91-0.604-1.514c0-0.595 0.201-1.091 0.604-1.489s0.9-0.596 1.492-0.596h40.85c0.592 0 1.092 0.203 1.5 0.608s0.612 0.905 0.612 1.5c0 0.605-0.204 1.106-0.612 1.503s-0.908 0.597-1.5 0.597h-40.85zM2.097 17.41c-0.592 0-1.089-0.203-1.492-0.608s-0.604-0.905-0.604-1.5c0-0.594 0.201-1.091 0.604-1.489s0.9-0.597 1.492-0.597h40.85c0.592 0 1.092 0.203 1.5 0.608s0.612 0.905 0.612 1.5c0 0.594-0.204 1.091-0.612 1.489s-0.908 0.597-1.5 0.597h-40.85zM2.097 4.207c-0.592 0-1.089-0.202-1.492-0.607s-0.604-0.91-0.604-1.514c0-0.595 0.201-1.091 0.604-1.489s0.9-0.597 1.492-0.597h40.85c0.592 0 1.092 0.202 1.5 0.607s0.612 0.905 0.612 1.5c0 0.605-0.204 1.106-0.612 1.504s-0.908 0.596-1.5 0.596h-40.85z"></path>
</symbol>
<symbol id="icon-close" viewBox="0 0 32 32">
<path stroke-linejoin="miter" stroke-linecap="butt" stroke-miterlimit="4" stroke-width="2.2857" d="M27.828 1.143c0.376 0 0.609 0.111 0.792 0.295s0.294 0.416 0.295 0.79c0 0.375-0.111 0.609-0.295 0.792l-12.009 12.009 12.009 12.007c0.184 0.184 0.295 0.417 0.295 0.792s-0.111 0.609-0.295 0.792-0.417 0.295-0.792 0.295c-0.375 0-0.609-0.111-0.792-0.295l-12.007-12.009-12.009 12.009c-0.184 0.184-0.417 0.295-0.792 0.295s-0.607-0.111-0.79-0.295c-0.184-0.184-0.295-0.417-0.295-0.792s0.111-0.609 0.295-0.792l12.007-12.007-12.007-12.009c-0.184-0.184-0.295-0.417-0.295-0.792s0.111-0.607 0.295-0.79 0.415-0.294 0.79-0.295c0.375 0 0.609 0.111 0.792 0.295l12.009 12.007 12.007-12.007c0.184-0.184 0.417-0.295 0.792-0.295z"></path>
</symbol>
</defs>
</svg>
